Coordinates
version=1
nRows=8
nColumns=40
inDegrees=yes

Units are S.I. units (second, meters, Newtons, ...)
Angles are in degrees.

endheader
time	pelvis_tilt	pelvis_list	pelvis_rotation	pelvis_tx	pelvis_ty	pelvis_tz	hip_flexion_r	hip_adduction_r	hip_rotation_r	knee_angle_r	knee_angle_r_beta	ankle_angle_r	subtalar_angle_r	mtp_angle_r	hip_flexion_l	hip_adduction_l	hip_rotation_l	knee_angle_l	knee_angle_l_beta	ankle_angle_l	subtalar_angle_l	mtp_angle_l	lumbar_extension	lumbar_bending	lumbar_rotation	arm_flex_r	arm_add_r	arm_rot_r	elbow_flex_r	pro_sup_r	wrist_flex_r	wrist_dev_r	arm_flex_l	arm_add_l	arm_rot_l	elbow_flex_l	pro_sup_l	wrist_flex_l	wrist_dev_l
     57.63000000	     -5.83325658	     -5.46037207	    -13.97483988	      1.16623863	      0.93277124	      0.38391074	     28.67387436	     -2.20294054	     -4.85511172	     24.71776908	     24.71776908	      2.80654354	      3.68567529	      1.98147163	     12.22431884	     -5.03045684	    -15.24423392	     20.98838125	     20.98838125	     16.03742339	    -16.07537176	      4.87737222	    -11.07366540	      6.29288380	      1.21151447	    -20.28797062	    -11.32294845	     -9.07080120	     31.81347121	     46.47706034	      0.00000000	      0.00000000	     39.91956729	    -25.45367828	     -9.48626228	     81.15277713	     48.10002305	      0.00000000	      0.00000000
     57.65185714	     -5.70236015	     -5.06738246	    -14.33232515	      1.16475811	      0.93233844	      0.38603078	     28.01586585	     -2.39040679	     -4.46130037	     23.70361643	     23.70361643	      2.93196621	      4.65734132	      2.35813549	     11.77409274	     -4.72267473	    -15.80169004	     20.81292915	     20.81292915	     16.16406807	    -15.88434744	      4.53751191	    -10.66989485	      5.82441013	      0.94165935	    -19.67440339	    -10.85887033	     -8.98458051	     32.19336588	     46.45693360	      0.00000000	      0.00000000	     40.49777895	    -25.45290125	     -9.64779088	     81.05826827	     48.11325392	      0.00000000	      0.00000000
     57.67371429	     -5.33149928	     -4.85870098	    -14.55322550	      1.16390041	      0.93241218	      0.38817558	     26.91435543	     -2.63630206	     -4.59683530	     22.98443932	     22.98443932	      3.72015143	      6.45513591	      3.97830229	     10.70901105	     -4.50801312	    -16.57876018	     20.01799941	     20.01799941	     15.39594802	    -15.39026352	      1.85437341	    -10.51694295	      5.63618380	      0.80372742	    -19.32716419	    -10.68058402	     -8.53419660	     33.20294364	     46.35790022	      0.00000000	      0.00000000	     41.19514575	    -24.83715605	    -10.64524687	     79.85839797	     48.16906940	      0.00000000	      0.00000000
     57.69557143	     -5.05871779	     -4.56562671	    -14.68104086	      1.16309301	      0.93222360	      0.39054418	     25.84101402	     -2.81678007	     -4.23650198	     22.31695737	     22.31695737	      4.00528886	      7.24830732	      4.00395080	     10.00414417	     -4.21712764	    -16.92884038	     19.69463178	     19.69463178	     15.52996513	    -15.07413535	      1.58068620	    -10.23483828	      5.30958346	      0.50490562	    -18.59692913	    -10.47090169	     -8.43515858	     33.59121771	     46.33530307	      0.00000000	      0.00000000	     41.34508096	    -24.82838908	    -10.64540180	     79.54870559	     48.16578840	      0.00000000	      0.00000000
     57.71742857	     -4.82255474	     -4.30431486	    -14.70531176	      1.16245298	      0.93194775	      0.39310506	     24.68424888	     -2.97090519	     -3.95890953	     21.62921209	     21.62921209	      4.33856991	      8.05874100	      3.84971621	      9.40173645	     -4.00014572	    -17.19973128	     19.50680757	     19.50680757	     15.68507173	    -14.72144863	      1.23195979	     -9.92889927	      5.04474455	      0.22771842	    -17.89242639	    -10.37098093	     -8.33104708	     33.94953139	     46.31401104	      0.00000000	      0.00000000	     41.39241547	    -24.68444673	    -10.75811339	     79.06674369	     48.16553448	      0.00000000	      0.00000000
     57.73928571	     -4.62055897	     -4.07266496	    -14.64416543	      1.16191142	      0.93163665	      0.39585507	     23.44715631	     -3.07647046	     -3.74607733	     20.82008108	     20.82008108	      4.69953317	      8.78977108	      3.57117269	      8.89449092	     -3.84928238	    -17.37242737	     19.44515027	     19.44515027	     15.84088522	    -14.40096627	      0.89098417	     -9.60552773	      4.80755704	     -0.01396417	    -17.20656645	    -10.37762412	     -8.22280152	     34.29914325	     46.29292487	      0.00000000	      0.00000000	     41.31333137	    -24.42154490	    -10.89181444	     78.46695209	     48.16318664	      0.00000000	      0.00000000
     57.76114286	     -4.44359778	     -3.88414854	    -14.49682420	      1.16137216	      0.93132019	      0.39887905	     22.17712450	     -3.12916139	     -3.66942893	     19.89425606	     19.89425606	      4.99235134	      9.48226228	      2.87604035	      8.45050335	     -3.78695524	    -17.49134544	     19.46162613	     19.46162613	     15.99074174	    -14.03679486	      0.49226928	     -9.29171236	      4.60529593	     -0.22218599	    -16.58301595	    -10.51989562	     -8.00720064	     34.69344131	     46.25872796	      0.00000000	      0.00000000	     41.21361964	    -24.02149318	    -11.15241440	     77.51992160	     48.16216187	      0.00000000	      0.00000000
     57.78300000	     -4.36718051	     -3.76735314	    -14.27162556	      1.16069113	      0.93104919	      0.40218123	     20.94793488	     -3.04009444	     -3.59442990	     18.79967616	     18.79967616	      5.37593626	      9.91919181	      2.65263301	      8.16900769	     -3.83690953	    -17.37375155	     19.57364361	     19.57364361	     16.13676254	    -13.89210246	      0.34749473	     -8.97613497	      4.46914612	     -0.39397872	    -15.96811631	    -10.70033062	     -7.94392401	     35.03267258	     46.24193102	      0.00000000	      0.00000000	     40.91814112	    -23.68874113	    -11.12267499	     76.90909300	     48.14645810	      0.00000000	      0.00000000
